<svg width="24" height="24" viewBox="0 0 24 24" fill="none" xmlns="http://www.w3.org/2000/svg">
<path d="M4 22V8H7V6C7 4.61667 7.48767 3.43733 8.463 2.462C9.43833 1.48667 10.6173 0.999334 12 1C13.3833 1 14.5627 1.48767 15.538 2.463C16.5133 3.43833 17.0007 4.61733 17 6V8H20V22H4ZM12 17C12.55 17 13.021 16.804 13.413 16.412C13.805 16.02 14.0007 15.5493 14 15C14 14.45 13.804 13.979 13.412 13.587C13.02 13.195 12.5493 12.9993 12 13C11.45 13 10.979 13.196 10.587 13.588C10.195 13.98 9.99933 14.4507 10 15C10 15.55 10.196 16.021 10.588 16.413C10.98 16.805 11.4507 17.0007 12 17ZM9 8H15V6C15 5.16667 14.7083 4.45833 14.125 3.875C13.5417 3.29167 12.8333 3 12 3C11.1667 3 10.4583 3.29167 9.875 3.875C9.29167 4.45833 9 5.16667 9 6V8Z" fill="#FF9A62"/>
</svg>
