<svg width="31" height="37" viewBox="0 0 31 37" fill="none" xmlns="http://www.w3.org/2000/svg">
<g clip-path="url(#clip0_107_207)">
<path d="M26.2979 2.88C24.6105 0.934191 21.5604 0.0999756 17.6584 0.0999756H6.33373C5.94766 0.09999 5.57427 0.239343 5.28067 0.492981C4.98707 0.746618 4.79253 1.0979 4.73202 1.48368L0.016631 31.7412C-0.0770955 32.3379 0.379549 32.8782 0.977268 32.8782H7.96874L9.7246 21.6102L9.6701 21.9631C9.79519 21.1666 10.4685 20.5791 11.2658 20.5791H14.5881C21.1148 20.5791 26.2253 17.897 27.7182 10.1381C27.7625 9.90865 27.8009 9.6853 27.834 9.4671C27.6456 9.36615 27.6456 9.36615 27.834 9.4671C28.2786 6.59936 27.831 4.6473 26.2979 2.88Z" fill="#27346A"/>
<path d="M12.3998 8.43404C12.5909 8.34196 12.8 8.29424 13.0117 8.29437H21.89C22.9414 8.29437 23.922 8.3636 24.8181 8.50951C25.0688 8.54996 25.3183 8.59826 25.5661 8.65433C25.9173 8.73274 26.2645 8.8287 26.6063 8.94187C27.0468 9.09073 27.4571 9.26409 27.8342 9.4671C28.2786 6.59825 27.831 4.6473 26.2979 2.88C24.6096 0.934191 21.5604 0.0999756 17.6584 0.0999756H6.33276C5.53536 0.0999756 4.85699 0.68732 4.73202 1.48368L0.0166317 31.7401C-0.0770949 32.3378 0.37955 32.8773 0.9763 32.8773H7.96874L11.6116 9.50484C11.6474 9.2751 11.7379 9.05762 11.8752 8.87109C12.0125 8.68456 12.1925 8.53458 12.3998 8.43404Z" fill="#27346A"/>
<path d="M27.7181 10.1381C26.2252 17.8958 21.1148 20.579 14.588 20.579H11.2647C10.4674 20.579 9.79401 21.1665 9.67013 21.963L7.48572 35.9734C7.4041 36.4955 7.80323 36.9687 8.32538 36.9687H14.219C14.5566 36.9686 14.8831 36.8467 15.1398 36.6248C15.3965 36.4029 15.5665 36.0956 15.6192 35.7582L15.6766 35.4544L16.7874 28.3318L16.859 27.9381C16.9117 27.6008 17.0817 27.2935 17.3384 27.0716C17.595 26.8498 17.9215 26.7278 18.2591 26.7277H19.1411C24.8503 26.7277 29.3207 24.381 30.6271 17.5941C31.1724 14.7578 30.8902 12.3898 29.4478 10.7265C29.0103 10.2227 28.4669 9.80666 27.834 9.46704C27.7997 9.68635 27.7625 9.90859 27.7181 10.1381Z" fill="#2790C3"/>
<path d="M26.2715 8.83682C26.0388 8.76805 25.8038 8.70717 25.567 8.65427C25.3191 8.59912 25.0696 8.55115 24.819 8.51043C23.9219 8.36354 22.942 8.29419 21.8897 8.29419H13.0125C12.8006 8.29371 12.5914 8.34184 12.4006 8.43496C12.1931 8.53519 12.0128 8.68508 11.8755 8.87167C11.7381 9.05825 11.6478 9.27589 11.6123 9.50576L9.72539 21.6102L9.6709 21.963C9.79502 21.1665 10.4683 20.5791 11.2657 20.5791H14.589C21.1157 20.5791 26.2261 17.8969 27.719 10.1381C27.7634 9.90859 27.8007 9.68623 27.835 9.46704C27.4569 9.26514 27.0477 9.09067 26.6071 8.9428C26.4959 8.9055 26.3841 8.87017 26.2716 8.83682" fill="#1F264F"/>
</g>
<defs>
<clipPath id="clip0_107_207">
<rect width="31" height="37" fill="white"/>
</clipPath>
</defs>
</svg>
