<svg width="29" height="29" viewBox="0 0 29 29" fill="none" xmlns="http://www.w3.org/2000/svg">
<path d="M26.1 3.8667C26.8691 3.8667 27.6068 4.17223 28.1506 4.71609C28.6945 5.25995 29 5.99757 29 6.7667V9.6667H0V6.7667C0 5.99757 0.305535 5.25995 0.84939 4.71609C1.39325 4.17223 2.13087 3.8667 2.9 3.8667H26.1Z" fill="#FF9A62"/>
<path fill-rule="evenodd" clip-rule="evenodd" d="M0 11.6V22.2333C0 23.0024 0.305535 23.7401 0.84939 24.2839C1.39325 24.8278 2.13087 25.1333 2.9 25.1333H26.1C26.8691 25.1333 27.6068 24.8278 28.1506 24.2839C28.6945 23.7401 29 23.0024 29 22.2333V11.6H0ZM3.86667 19.3333H15.4667V17.4H3.86667V19.3333ZM25.1333 19.3333H19.3333V17.4H25.1333V19.3333Z" fill="#FF9A62"/>
</svg>
